<svg id="Camada_1" data-name="Camada 1" xmlns="http://www.w3.org/2000/svg" viewBox="0 0 1040 400"><defs><style>.cls-1{fill:#111;}</style></defs><path class="cls-1" d="M608.38,211.13c-1.4-3.41-5.59-10.09-9-14.75-3.57-4.66-9-10.41-12.27-12.74a96.75,96.75,0,0,0-13-7.3c-4.2-2-11.81-3.57-19.42-4-6.83-.46-30.6-.93-52.81-1.24-22.21-.16-42.87-.16-45.82,0h0c-2.95.31-7,.93-8.86,1.24a11.27,11.27,0,0,0-5.9,4.2c-1.24,2-3.88,16-6.21,32.3-2,15.85-5.59,42.41-7.77,59s-5,38.83-6.21,49.24c-1.55,13.2-1.86,20-.78,22.21a16.63,16.63,0,0,0,6.22,5.43c3.57,1.87,8.38,2.18,21.43,1.56,9.16-.47,22.06-1.25,28.74-1.56,6.52-.46,13.35-1.39,15.06-2.33a12.77,12.77,0,0,0,4.82-5.12c1.24-2.49,1.24-4.51,0-7.3a9.3,9.3,0,0,0-6.68-5.13c-2.8-.62-13.36-1.09-23.3-1.09H448.24c0-7.76,1.24-20,2.64-32.3l2.8-22.22c40.23,2,42.09,1.87,44.58-.77a16.88,16.88,0,0,0,3.1-7.61c.16-2.64-.15-5.59-.77-6.68-.63-.93-3.42-2.95-6.06-4.35-2.8-1.4-12.43-3.57-21.44-4.66-9-1.24-16.62-2.64-17.08-3.11s.15-5.59,1.24-11.65A145.68,145.68,0,0,0,459.11,213a64.43,64.43,0,0,1,1.56-12.43c1.24-4.81,2.17-5.59,5.12-5.12,1.87.46,14.91,1.24,29,1.7s28.58,1.25,32.31,1.56l6.52.77a193.6,193.6,0,0,1-1.55,25.63c-.78,5.9-2.49,22.84-3.89,37.28s-3.41,36.66-4.34,49.24c-1.25,15.38-1.4,23.92-.32,26.09.94,1.71,3,3.73,4.66,4.2a51.38,51.38,0,0,0,10.88.62,46.13,46.13,0,0,0,13.2-2,58.36,58.36,0,0,0,9.32-3.88A110.27,110.27,0,0,0,573.28,329a79.3,79.3,0,0,0,14.44-14.45,140.24,140.24,0,0,0,12.74-21.12c3.26-6.84,7-15.69,8.39-19.89,1.4-4,3.26-13.35,4.19-21,1.4-10.26,1.4-16.16,0-24.39C612,222.32,609.94,214.55,608.38,211.13Zm-19,42.72c-.62,11.49-1.4,14.75-6.37,24.85-3.26,6.37-8.38,14.45-11.65,18A110.34,110.34,0,0,1,560.08,307a58,58,0,0,1-8.08,5c-2.64.78-2.8-.16-1.86-13.51.46-7.77,1.7-23.77,3-35.26s3.1-30.6,4.19-42.41l2-21.43,3.88.93a32.69,32.69,0,0,1,8.55,4.5,59.77,59.77,0,0,1,8.85,9.64c2.33,3.26,5.44,10.56,6.83,16.15A82.92,82.92,0,0,1,589.43,253.85Z"/><path class="cls-1" d="M663.37,208.8a27.26,27.26,0,0,0-8.86-1.55c-2.79,0-6.21.78-7.61,1.71-1.39.78-3.26,4-4.19,7.3s-4.51,27-7.92,53.12-6.37,50.48-6.53,54.36-.15,8.55,0,10.41c0,2.18,2.33,5.13,6.06,7.46,3.73,2.64,7.46,3.88,10.41,3.57a7.44,7.44,0,0,0,6.52-4.35c1.09-2.17,3-13.05,4.35-24.08,1.24-11.18,2.8-23.29,3.26-27.18s2.95-21.28,5.44-38.83c2.64-17.55,4.19-33.7,3.73-36.19A7.73,7.73,0,0,0,663.37,208.8Z"/><path class="cls-1" d="M72.66,165.62c-2.79-2.79-5.12-3.41-13.51-3.41s-10.25.46-12.43,3.41c-1.55,1.87-2.64,4.51-2.48,5.91a6.73,6.73,0,0,0,1.55,3.88c.93.93,0,7.92-2.33,18.64-2,9.32-5.43,24.07-7.61,32.62-2,8.54-4,18-4.66,21-.46,3-2.33,11.81-4,19.42s-4.5,19.57-6.21,26.41c-1.55,6.83-4,17.55-5.28,23.61s-2.33,14.13-2.33,17.55c0,5.12.78,6.68,4.66,9.32,2.48,1.71,6.06,3.1,7.76,3.1a13.39,13.39,0,0,0,5.6-1.24c1.39-.62,3.72-3.11,5-5.75a153.42,153.42,0,0,0,6-18.64c2-7.61,7.62-31.06,12.28-52s11-47.53,14-59,5.75-25.48,6.37-31.07C75.93,170.28,75.61,168.88,72.66,165.62Z"/><path class="cls-1" d="M705.77,131.14a16.65,16.65,0,0,0,3.11-11.65l-.47-6.21c-27-.78-31.84-.31-32.93,1.09-.93,1.08-2.48,4.81-3.57,8.23s-3.11,12.11-4.5,19.41l-2.64,13.21c-14,.62-19.58,1.86-22.06,3.41a37.39,37.39,0,0,0-6.06,5.13c-1.09,1.24-2,5.59-2,9.63,0,6.21.78,8.23,4.66,12.11,4.2,4.2,5.75,4.66,14,4.66s9.94-.62,14-4.35,5.13-6.36,8.23-22.21c1.87-9.94,3.73-18.48,4.2-18.95s3.26-1.24,6.21-1.86a49.53,49.53,0,0,0,10.87-3.57A27.83,27.83,0,0,0,705.77,131.14Z"/><path class="cls-1" d="M186.83,166.87c-5,0-6.22.77-9.17,5.74a64.1,64.1,0,0,0-5.43,13.67c-1.09,4.19-3.73,16.15-5.91,26.41s-6.83,30.75-10.4,45.51c-3.73,14.75-7.15,26.71-7.92,26.71s-1.71-1.55-2.49-3.57c-.78-1.86-2.95-10.72-4.66-19.73s-4.35-25.47-5.59-36.5c-1.24-11.18-2.33-27.34-2.33-36.19,0-13.82-.47-16.31-3.11-18.95a11,11,0,0,0-7.45-2.95,18.07,18.07,0,0,0-7.3,1.71c-1.71.93-4.35,4.35-5.91,7.61a171.61,171.61,0,0,0-5.74,18.79c-1.71,7.15-5.28,23-7.92,35.42C93,243,90.06,257,89.28,261.61c-.93,4.66-2.17,12-2.79,16.31-.78,4.2-3.58,18.64-6.22,31.85s-4.81,26.09-4.81,28.73.78,5.59,1.86,6.68A7.65,7.65,0,0,0,82,347a18.62,18.62,0,0,0,7-2.17c3.42-1.71,5.13-4.51,7.77-12.74,1.71-5.9,5-18.79,7.14-28.58S109.63,277,112,266.27s4.35-20.5,4.82-21.74c.77-1.87,1.24-1.56,2.33,1.09.77,2,2.79,21.28,4.66,42.71,3,35.57,3.57,39.76,6.83,44.73a21.87,21.87,0,0,0,9.63,7.61c4.5,1.56,7.14,1.71,11.34.47,3-.93,6.21-2.64,7.3-3.73s2.95-6.52,4.19-12.11,2.95-14,4-18.64,2.8-12.12,3.88-16.31c1.09-4.35,4.2-17.55,7-29.51s8.08-34.64,12-50.48,7-31.22,6.84-34.18-.93-6.36-2-7.45S190.09,166.71,186.83,166.87Z"/><path class="cls-1" d="M294.47,185.5a39.52,39.52,0,0,0-7.3-9.47,43.67,43.67,0,0,0-9.48-6.68A25.33,25.33,0,0,0,266.82,167a45.37,45.37,0,0,0-11.18,1.71c-3.26.93-9.17,5.44-14.76,11.18a97.44,97.44,0,0,0-15.07,20.35,218.39,218.39,0,0,0-11,27.18c-2.95,9-6.37,21.9-7.46,28.74s-2,21.43-2,32.62c0,16,.62,21.9,2.95,28.73a42.08,42.08,0,0,0,9.17,14.91,47.45,47.45,0,0,0,15.22,9.79c5.59,2,10.87,2.95,14,2.48,2.79-.46,7.92-3.41,11.49-6.68a86.21,86.21,0,0,0,12.12-14.29A136.63,136.63,0,0,0,280,306.66a64.17,64.17,0,0,0,4.82-16.31c.62-6.52.31-8.39-2.49-11.34-2.48-2.33-4.5-3.11-7-2.48a23.35,23.35,0,0,0-7,4.34c-1.86,1.71-5.74,8.55-8.38,14.92s-6.53,14.29-8.86,17.39c-2.17,3.26-5.28,6.22-6.83,6.68a8.5,8.5,0,0,1-5.75-.78c-1.71-.93-4.66-4.5-6.52-8.23-2.33-4.5-3.57-10.4-4-19a103.72,103.72,0,0,1,2-25.63c1.4-7.3,4.5-19.1,6.52-26.4a198.67,198.67,0,0,1,7.92-21.75,125.49,125.49,0,0,1,7.46-14,31.45,31.45,0,0,1,9-8.54l5.43-3.11c7.15,5.44,9.48,9.32,10.88,14.14a90.87,90.87,0,0,0,4.19,12.58c2,4.66,2.8,5.13,9.17,5.13,5.43,0,7.3-.63,8.54-3.11a25.36,25.36,0,0,0,1.55-8.54A84.9,84.9,0,0,0,299,199,65.85,65.85,0,0,0,294.47,185.5Z"/><path class="cls-1" d="M404.28,184.73a41.38,41.38,0,0,0-13.66-9.94c-5.6-2.33-13.36-4-23.15-5-8.08-.78-21.59-1.25-29.82-1.4-14.91,0-15.22,0-17.71,4.19h0a11.09,11.09,0,0,0-1.55,9c.62,2.49,1.86,5.59,2.95,6.68a7.68,7.68,0,0,0,5.44,1.86c1.86,0,3.72.47,4,1.09.47.78-1.08,9.32-3.26,19.11-2,9.78-4.81,22-5.9,27.18s-3.88,18-6.06,28.73-4.81,23.3-5.59,28c-.93,4.66-2.95,15.85-4.66,24.85s-3.11,18.8-3.11,21.75.78,6.37,1.87,7.46,4.5,1.86,7.45,1.86a11.46,11.46,0,0,0,8.08-2.64c1.55-1.55,5.28-14,8.86-29.2,3.41-14.6,7.76-32.46,9.78-39.77s4-14.13,4.66-14.75c.62-.78,2.33-.93,3.57-.31s5.28,10.87,9.32,23.3c3.73,12.27,7.92,26.09,9.17,30.75s4.19,13.67,6.68,20c3.26,8.54,5.43,12,8.69,13.51a21.81,21.81,0,0,0,8.55,2.18c2.33,0,5.12-.94,6.21-2a6.22,6.22,0,0,0,1.71-4.66c0-1.56-2.18-7.77-4.82-14-2.48-6.22-7.14-18.18-10.25-26.72-2.95-8.54-6.68-20-8.23-25.63s-3.26-11.49-3.73-13.2c-.93-2.64.31-3.73,8.7-7a48.41,48.41,0,0,0,16.93-11,71.51,71.51,0,0,0,11.49-16.31,54.33,54.33,0,0,0,5.29-18.48c.46-5.13,0-12.43-1.09-16.31A39.59,39.59,0,0,0,404.28,184.73Zm-15.53,29.82a43,43,0,0,1-3.26,10.87c-1.09,2.49-4.5,6.68-7.3,9.32a29,29,0,0,1-11.81,6.68A76.17,76.17,0,0,1,353.49,243c-3.41,0-6.21-.62-6.21-1.55s1.86-10.09,4-20.66c2.17-10.4,4.66-20.5,5.43-22.52h0c.94-2.48,2.64-3.42,6.37-3.42a53,53,0,0,1,11.34,1.71,29.76,29.76,0,0,1,10.72,6.68C389.22,207.56,389.68,208.8,388.75,214.55Z"/><path class="cls-1" d="M907.23,184.73A54.75,54.75,0,0,0,897,174.94a45.06,45.06,0,0,0-10.72-5.12c-3-.78-7.92-1.71-10.87-2.18a26.42,26.42,0,0,0-10.88,1.24h0A55.92,55.92,0,0,0,854.42,174c-2.49,1.86-7.61,7.15-11.18,11.65a98.52,98.52,0,0,0-10.57,17.71c-2.33,5.12-5.9,14.6-7.92,21a264.36,264.36,0,0,0-7,27.18c-2.64,12.89-3.1,19.57-2.64,38.83.62,22.21.93,23.76,5.28,32.62,3.11,6.06,6.84,10.72,10.88,13.51a30.93,30.93,0,0,0,14.6,5.28c6.52.78,11.18.31,19.72-2.33,9.48-2.79,12.89-4.66,20.82-12.27,7.3-6.83,11-12.11,16.15-22.83a243,243,0,0,0,11-27.18c3.88-12.12,4.19-15.38,4.35-40.39.15-23-.31-28.58-3-36.5A58.13,58.13,0,0,0,907.23,184.73Zm-13.82,75.33c-1.25,4.66-4,13.51-6.37,19.42a87.32,87.32,0,0,1-8.7,17.08c-2.64,3.42-6.52,7.46-8.85,9a71.39,71.39,0,0,1-9.63,5.13,30.44,30.44,0,0,1-9.64,2.17c-3.57,0-4.81-1.09-6.83-5.9-1.4-3.11-3.26-11.65-4.19-19a106.6,106.6,0,0,1,.31-26.41,167.29,167.29,0,0,1,5-24.07,219.73,219.73,0,0,1,9.32-23.3c4-8.39,7.61-13.51,11-16h0c2.79-1.86,7-3.42,9.47-3.42a18.39,18.39,0,0,1,8.23,2.64,23.48,23.48,0,0,1,6.53,7.46,82.41,82.41,0,0,1,4.35,13.2,110.39,110.39,0,0,1,0,41.94Z"/><path class="cls-1" d="M796.64,197.93A53.84,53.84,0,0,0,789,186.59c-2.49-2.33-6.22-5.75-8.39-7.61a60.23,60.23,0,0,0-10.1-6.06c-3.41-1.55-12.89-3.57-21-4.35-8.07-.93-19.88-1.7-26.09-1.7-10.41,0-11.65.31-15.22,4.19h0c-2.8,3.11-3.73,5.75-3.42,9a7.23,7.23,0,0,0,4.66,6.52c4,1.87,4.35,2.49,3.42,8.54-.47,3.73-1.4,11.19-2.33,16.78s-1.71,13.51-2,17.86c-.47,4.2-1.87,16.78-3.26,28-1.25,11-2.8,22.68-3.27,25.63S701,291.59,700.49,295s-1.4,10.1-2.17,14.76a114.82,114.82,0,0,0-1.56,18.63c0,9,.47,10.57,4.66,15.07,2.49,2.8,6.53,5.59,8.86,6.06,2.48.62,9.16.78,15.22.31,9-.47,13.51-1.86,25.63-7.61,8.07-4,19.1-10.41,24.38-14.45,5.44-3.88,12-10.4,14.76-14.6A32.36,32.36,0,0,0,796,298.12a33.83,33.83,0,0,0-2-14.76,68.94,68.94,0,0,0-6.53-12.12,31,31,0,0,0-8.85-7.45l-5-2.33a77.13,77.13,0,0,0,13.2-10.56c2.95-3.11,7.3-10.1,9.79-15.69,3.88-8.7,4.5-11.5,3.88-20.19C800.05,209.42,798.35,201.81,796.64,197.93ZM770.7,295.32c-.47,2.95-3.57,7.77-7.15,11.34a65.54,65.54,0,0,1-14.29,10.09c-4.5,2.18-11,3.89-14.44,3.89s-7-.62-8.08-1.24c-1.55-.78-1.24-7,1.55-27.34l3.42-26.1,8.54.94a51.12,51.12,0,0,1,14.76,4,59.35,59.35,0,0,1,10.56,7c2.33,2.18,4.66,5.75,5.13,8.08A23.58,23.58,0,0,1,770.7,295.32Zm7.76-65.24c-1.08,2.49-4.66,6.68-7.76,9.32-3.11,2.8-7.92,5.59-10.56,6.06-2.8.47-9.32.62-23.77-.16l.47-6.21c.31-3.42,1.55-13.51,2.79-22.52s2.49-18.48,3-21.28,1.87-5.13,3.58-5.59c1.39-.47,3-.78,3.41-.93s4.35.77,8.55,2,9.78,3.88,12.27,5.9a32.11,32.11,0,0,1,7.45,9.78,40.78,40.78,0,0,1,2.8,12.74C780.64,222.94,779.71,227.75,778.46,230.08Z"/><path class="cls-1" d="M1014.71,317.53c-1.39-2.95-7-18.17-12.58-33.86-5.59-15.53-10.25-29.2-10.25-30.29,0-.93,3-8.54,6.84-16.62,3.72-8.07,11-24.23,16.31-35.72s9.63-22.06,9.63-23.3-1.25-3.57-2.8-5c-1.55-1.56-5.28-2.8-8.54-2.8a14,14,0,0,0-9.79,3.42c-2.17,2-8.23,13.82-13.82,26.87-5.59,12.74-10.88,23.3-12,23.3-.93,0-4.51-7.61-7.92-17.09s-7.62-20.81-9.48-25.47c-1.86-4.5-4.19-8.85-5-9.63-.78-.62-4.35-1.71-7.77-2.17-4.5-.63-7.3-.32-9.94,1.55h0c-2.64,1.71-3.57,3.88-3.41,7.14,0,2.49,3.26,13.05,7,23.46,3.72,10.56,9.47,26.56,12.89,35.57l5.9,16.46c-11.65,25-17.24,36.5-19.73,41.63s-7.45,15.38-10.71,22.83c-4.82,11-5.75,14.29-4.51,17.09a12.21,12.21,0,0,0,5.44,5.43,18.64,18.64,0,0,0,5.9,2c.93,0,3.42-1.55,5.28-3.41,1.87-2,6.68-9.48,10.72-16.78,3.88-7.3,10.25-19.26,14-26.87,3.73-7.46,7.61-13.51,8.39-13.51s1.86,1.55,2.17,3.41c.31,2,3.42,11.19,6.68,20.66,3.42,9.48,7.92,20.82,9.94,25.48s5.13,9.31,6.84,10.56a18.41,18.41,0,0,0,8.23,2,11.86,11.86,0,0,0,8.85-3.89c3.73-3.72,3.73-4.19,1.71-10.56C1018,325.92,1016,320.48,1014.71,317.53Z"/></svg>