<svg version="1.2" xmlns="http://www.w3.org/2000/svg" viewBox="0 0 1040 400" width="1040" height="400">
	<title>The_Unreleased_Tittle_Prancheta_1-ai</title>
	<style>
		.s0 { fill: #ffffff } 
	</style>
	<g id="Camada 1">
		<path id="&lt;Path&gt;" class="s0" d="m637.8 281.5c-8.4 0-16-0.6-17.2-1.3-1.2-0.7-2.2-11.9-2.8-34.9-0.9-28-1.6-34.2-3.8-36.6-1.5-1.6-3.6-2.6-5.8-2.7-2.1 0.1-4.1 1.1-5.5 2.7-1.7 2-2.2 10.1-1.9 38 0.2 19.5 1.1 37.9 2 40.7 0.8 2.7 3.2 5.9 5 6.8 2 0.9 11 2.2 20.1 2.7 9.2 0.4 18.4 0.3 20.8-0.2 2.6-0.7 4.8-2.3 6.1-4.5 1.3-2.2 1.3-4.9 0-7.1-1.5-3.4-2.6-3.6-17-3.6z"/>
		<path id="&lt;Path&gt;" class="s0" d="m583.7 285c-2.7-1.6-6.3-1.9-14.6-0.8-6 0.6-13 1.1-15.8 0.8-4.5-0.5-4.7-0.6-6-11q-0.7-5.3-0.8-10.7c0.4-0.2 6.7-0.6 14.2-1.3 7.7-0.4 15.3-1.5 17-2.5 1.8-1 3-2.9 3.1-5 0.2-2-0.5-4-1.8-5.5-1.3-1.1-8.5-2-17.8-2.4l-15.7-0.4c-1.6-17.2-1.4-20.9-0.2-21.7 1-0.7 8.5-1 16.9-0.8 11.6 0.3 15.7 0 17.7-1.9 1.6-1.5 2.5-3.4 2.7-5.5 0-1.9-0.7-3.6-2-5-1.1-1.1-7.4-2.4-13.8-2.8-6.5-0.5-16-1.1-21.3-1.4q-6.3-0.4-12.7 0.1c-2 0.5-3.9 2.8-5.2 6.4-1.7 4.9-1.6 10.3 0.5 31.8 1.4 14.3 2.8 29.1 3.1 33 0.3 3.9 1.6 9.3 3 11.8 1.6 3.3 4.9 5.8 10.7 8.5 7.6 3.3 9.9 3.6 21.4 2.7 8.5-0.7 14.5-1.9 17-3.7 2.2-1.5 4.4-3.7 4.7-4.7 0.5-1.2 0.5-2.6 0-3.9-0.4-1.1-2.4-3-4.3-4.1z"/>
		<path id="&lt;Compound Path&gt;" fill-rule="evenodd" class="s0" d="m523.9 291.8c-0.3 3.8-1.2 4.9-4.4 5.2-2.3 0.3-6.4-1.3-10.2-4-3.4-2.3-14-9.7-23.6-16.3-9.6-6.6-18.2-12.4-19.3-12.9-1.4-0.9-1.7 2.5-1.6 15.1 0.3 12.7 0 16.9-1.9 19-1.5 1.6-3.7 2.5-6 2.5-2.3-0.3-4.4-1.5-5.8-3.5-1.7-2.8-2.7-13.5-3.9-46.3-1.1-32.4-1.1-43.8 0.3-46.3 1.7-3.1 2.7-3.3 15.3-2.6 8 0.6 16.3 2 20.4 3.7 4.1 2 7.9 4.6 11.2 7.7 2.8 3.6 5.1 7.6 6.9 11.8 1.8 4.5 2.5 9.3 2.2 14.2-0.4 4-1.5 7.9-3.3 11.5-1.8 2.6-4.4 4.6-7.4 5.8-2.7 0.9-4.7 2.2-4.7 3.1 0 1 1.2 1.9 2.7 2.4 1.5 0.3 7.3 3.9 13 8 5.7 4.1 12.6 9.7 15.4 12.2 4.1 3.8 5.2 6 4.7 9.7zm-37.5-62.8c-1.6-3-3.7-5.5-6.2-7.6-2.9-1.9-6.2-3.2-9.6-3.8l-5.6-1.1-0.2 14.5-0.3 14.4c8.5 0 13.5-1.2 16.5-2.4 3.1-1.4 6-3.8 6.5-6 0.4-1.9 0-5.5-1.1-8z"/>
		<path id="&lt;Path&gt;" class="s0" d="m418.6 204.1c-1.7-0.8-3.5-1.2-5.4-1.2-1.7 0-4.8 1.6-6.9 3.6-3.6 3.5-3.6 3.6-2.7 26.7 0.7 12.8 0.7 23.1-0.1 23.1-0.8 0-3.9-3.3-7.4-7.3-3.5-4-10.4-13.1-15.4-20-4.9-7.1-9.6-14.8-10.6-17.5-0.8-2.7-3-5.2-5-5.8-2.3-0.8-4.8-0.2-7.4 1.6l-3.9 2.7c1.9 40.3 3.3 60.4 4.6 70.8 1.7 15.1 2.6 19.1 5 20.7 1.5 1 3.9 1.6 5.1 1.1 1.3-0.3 3.3-2.2 4.6-4.2 1.6-2.7 1.9-8.5 1.1-26.6-0.5-12.9-0.5-23.3 0.2-23.3 0.7-0.1 5.2 5 9.9 11.4 4.7 6.3 11.8 16.6 15.7 23.1 3.9 6.4 8.3 12.4 9.7 13.3 2 1.3 3.7 1.1 6.8-0.6 2.5-1.6 4.3-4.1 4.9-7.1 0.4-2.5 0.4-22.3 0-44-0.6-29.9-1.3-39.7-2.8-40.5z"/>
		<path id="&lt;Path&gt;" class="s0" d="m153.9 244.2c-1.2-15.8-3-30.1-3.9-31.9-1.1-1.8-3-3-5.2-3.1-2-0.1-4 0.6-5.5 1.9-1.3 1.4-1.9 6.6-1.6 16.2 0.2 7.7-0.3 15.1-0.8 16.2-0.7 1.1-4.5 1.9-10.5 1.9-8.5 0-9.4-0.4-10.1-3.5-0.4-2-1.2-9.6-2-17-1.2-12.7-1.4-13.4-6-15.6-2.3-1.1-4.4-2.6-6.2-4.4-1-1.2-4.4-2.8-7.9-3.6-3.3-0.8-6.8-1.2-10.2-1.2-2.2 0.1-6.4 0.4-9.4 0.7-3 0.4-18.3 2.4-33.8 4.6-20.5 2.8-29.1 4.7-31 6.6-1.6 1.5-2.2 3.6-1.6 5.7 0.9 2 2.4 3.7 4.2 5 2.5 1.4 6.5 1.4 18.9-0.3 8.6-1.3 16-1.8 16.5-1.3 0.5 0.5 1 15.7 1.1 33.8 0.3 22.3 1.1 34.3 2.4 37.1 1.1 2.2 3.1 4.9 4.4 5.7 1.2 0.8 4.2 1.1 6.6 0.5 2.8-0.7 4.7-2.2 5.3-4.4 0.5-2-0.1-19.2-1.4-38.3-1.2-19-1.9-35.5-1.8-36.4 0.5-1.3 4.9-2.4 12-3q8.5-0.7 17-0.3l5.6 0.4c0.6 59 1.4 72.8 2.6 77.1 1.6 4.9 3 6.4 6 6.7 2.2 0.2 4.9-0.1 6-0.7 1.4-1 2-6.6 2.4-19.4l0.3-18.1c15.9-1.5 20.9-1.5 21.7-0.9 0.6 0.5 1.9 6.6 2.8 13.5 0.8 6.9 2.5 15 3.8 17.8 1.6 3.1 3.5 5 5.4 5 2-0.2 3.9-1 5.5-2.4 2-1.9 2.3-4.5 1.7-12.1-0.6-5.4-2-22.7-3.3-38.5z"/>
		<path id="&lt;Path&gt;" class="s0" d="m210.5 278c-7.7 1-14.6 1.1-15.4 0.7-0.6-0.7-0.9-5.4-0.8-10.6l0.5-9.4c17.9-1.3 23.4-2.5 25-3.9 1.7-1.8 2.6-4.2 2.5-6.6 0-2.5-1-4.9-2-5.5-1-0.7-7.6-1.3-14.5-1.3h-12.6l-1-15.7c23.6-2.5 30.6-4.1 32.3-5.5 1.5-1.5 2.5-3.4 2.7-5.5-0.2-1.9-0.9-3.7-2-5.2-1.3-1.3-6-1.9-13-1.7-6 0.1-15.6 0.8-21.1 1.5-7.6 1-10.9 2.2-13.2 4.9-2.9 3.3-2.9 5.4-1.9 28.8 0.6 13.8 1.7 29.7 2.5 35.4 0.9 7.7 2.4 11.1 5.3 14.1l4 4c26.2-3.3 35-4.9 36.5-5.7 1.8-1.1 3.3-2.7 4.4-4.6 1.2-2.3 0.9-3.9-1.3-6.4-2.6-3.2-3.3-3.3-16.9-1.8z"/>
		<path id="&lt;Path&gt;" class="s0" d="m326.9 204.8c-2.7-0.3-5.4 0.3-6.3 1.2-0.9 1.1-1.6 14.3-1.6 32.7 0 26.9-0.3 31.6-2.8 35.4-1.4 2.4-3.8 4.3-5 4.3-1.2 0-4.1-1.6-6-3.5-2-2-4.9-7.5-6.3-12.3-1.4-4.7-3.3-17.1-4.2-27.5-0.8-10.3-1.3-20.1-0.8-21.5 0.5-1.6-0.3-4.6-1.6-6.8-1.4-2.6-4.1-4.1-7.1-3.9-3.4 0-5.3 1.1-7.4 4.4-2.3 3.9-2.5 6.1-0.6 25.5q1.5 17.4 4.9 34.6c1.7 7.4 4.7 15.8 6.7 18.8 2.5 3.5 5.6 6.6 9 9.2 3 1.8 7.9 3.4 10.6 3.4 3.2-0.1 6.4-0.8 9.4-2.2 2.5-1.1 6.6-4.6 9.3-7.4 3.3-3.9 5.5-8.5 6.6-13.5 1.1-4.7 1.9-20.3 1.9-35.4 0-18.7-0.7-28.5-2.1-31.1-1.2-2.6-3.7-4.3-6.6-4.4z"/>
		<path id="&lt;Compound Path&gt;" fill-rule="evenodd" class="s0" d="m798.5 272.1c4.1 9.9 6.9 19.4 6.4 20.9-0.9 2.1-2.5 3.8-4.4 5-1.9 1.3-4.5 2.1-5.8 1.8-1.2-0.5-3.4-3.2-5-6q-2.6-5.6-4.1-11.5c-0.9-3.5-2.1-8.2-2.5-10.6-1-4.2-1.1-4.4-12.4-4.4-6.2 0-12.3 0.7-13.4 1.3-1.1 0.6-2.6 6.4-3.6 12.9-1 6.4-2.2 12.9-3 14.1-1 1.6-2.4 2.8-4.1 3.5-1.9 0.7-4.2 0-6.6-2-2.4-2-3.5-4.7-3.5-8.8 0-3.3 2.7-22.8 5.8-43.6 3.2-20.6 6.5-38.5 7.3-39.6 0.8-1.2 3.6-2.2 6.4-2.2 3.4 0.3 6.5 1.5 9.1 3.6 2.2 1.9 9.1 13.4 15.1 25.5 6.2 12.1 14.3 30.2 18.3 40.1zm-25.7-21.4c0.4-0.5-1.5-5.3-4.7-11-3.1-5.7-5.9-10.5-6.4-10.9-0.6-0.3-1.4 1-1.7 2.9q-1 6.1-0.7 12.2l0.2 8.7c9.7-0.8 12.9-1.4 13.3-1.9z"/>
		<path id="&lt;Path&gt;" class="s0" d="m854 245.8c-4.1-2-8-3.6-9-3.6-1 0-4.4-1.4-7.9-3.1-3.6-1.9-6.7-4.8-7.2-6.6-0.4-2.4-0.2-4.9 0.8-7.1 1.3-2.7 3.1-3.6 6.8-3.6 3.7 0.1 7.4 0.8 11 2 4.8 1.5 6.5 1.5 9.9-0.5 3.1-1.9 4-3.3 3.6-6.9-0.6-3.2-2.3-6-4.9-7.9-3.3-2.3-7.2-3.4-14.9-3.8-7.7-0.3-12.3 0.4-16.9 2.5-3.9 2.1-7.5 4.7-10.7 7.9-2.7 3.5-4.7 7.5-5.8 11.8-1.6 5.8-1.2 7.5 1.9 13.5 2.4 4.4 5.5 8.3 9.2 11.6 3.4 2.7 9 5 14.9 6.1 5.2 1 11.2 2.7 13.4 3.8 2.2 1.1 4.5 3.3 5.2 4.9q1.2 3-1.6 6.7c-1.6 2.1-3.4 4-5.5 5.6-2.2 1.4-4.9 0.6-13.4-3.5-5.8-3-12.1-5-13.8-4.7-1.8 0.1-4 2.2-5 4.4-1.2 2-1.3 4.6-0.3 6.7 0.7 1.5 4.4 4.4 8 6.6 4.6 2.5 9.5 4.3 14.6 5.5 6.1 1.5 9.3 1.5 14.1-0.1 4-1.4 7.7-3.5 10.9-6.1 2.7-2.6 5-5.7 6.7-9 1.3-3.6 2-7.3 2.1-11 0-4.1-1.4-8-4.4-12.3-3.1-4.2-7.1-7.5-11.8-9.8z"/>
		<path id="&lt;Path&gt;" class="s0" d="m723 279.8c-2.7-2.2-4.1-2.2-13.2-0.3-5.7 1.1-12.3 2.5-14.9 3l-4.8 0.9c-1.7-17.9-2-23.3-1.9-23.6 0.2-0.1 5.9-1.1 12.5-1.9 6.7-0.9 13.7-2.2 15.4-3.1 1.8-1 3-2.9 3.1-5 0.1-2.1-0.5-4.1-1.9-5.7-1.4-1.4-6.1-1.9-16.2-1.5l-14.1 0.4-0.9-22c22.6-1.6 31.2-3 34-4.1 3.1-1.4 4.8-3.6 5.1-6.1 0.2-2.2-0.4-4.9-1.5-6-1.4-1.4-7.7-2.1-22.5-1.9-17.6 0-21.2 0.5-25.6 3.1-4 2.6-5.2 4.6-6 9.9-0.7 3.7-0.5 21.1 0.3 38.9 1.1 29.1 1.6 32.7 4.5 37 2 2.8 4.6 5.1 7.6 6.7 3.5 1.6 6.8 1.4 18.7-1.1 8-1.7 16.5-3.8 18.9-4.7 2.7-1 4.7-3.2 5.3-6 0.8-3.3 0.3-5-1.9-6.9z"/>
		<path id="&lt;Compound Path&gt;" fill-rule="evenodd" class="s0" d="m1017.1 247.7c0.1 6.3-1.3 12.5-4.1 18.1-2.5 5.2-5.6 10.1-9.3 14.5-4.2 4.1-8.8 7.9-13.7 11.3-6 4.2-9.9 5.7-14.5 5.7-3.4 0-7.4-0.5-8.8-1.1-2-1.4-3.6-3.3-4.7-5.6-1.2-2.5-3.3-11-4.5-18.8-1.3-8-3.3-24.2-4.8-35.9-1.2-11.6-2.3-23.1-2.3-25.4 0.2-2.9 1.4-5.7 3.4-7.7 2.9-2.9 4.4-3.2 10.6-2.4 3.9 0.5 12.2 3.3 18.2 6.3 6.9 3.4 13.4 7.4 19.5 12.1 4.7 3.8 9.9 9.7 11.7 13.2 2.2 4.2 3.1 9.4 3.3 15.7zm-18.4 11.5c1.3-3.1 2-6.4 2.1-9.8 0-3.4-0.8-6.7-2.3-9.8-1.8-3.2-4-6.1-6.6-8.5-2.5-2.4-8.2-6-12.8-8.4-4.5-2.2-8.6-3.9-9.2-3.9-0.7 0-0.5 6.9 0 15.2 0.6 8.5 2 21.6 3 29 1.1 7.5 2.5 14 3.1 14.6 0.6 0.5 2.7 0.2 4.4-0.6q5.1-3.4 9.6-7.6c3.5-3.1 7.4-7.8 8.7-10.2z"/>
		<path id="&lt;Path&gt;" class="s0" d="m936.5 268.9c-1.4 0-7.7 1.5-13.6 3.2-6 1.7-13 3.1-15.8 3.1-4.2 0-4.8-0.6-5.8-5.8q-1.1-5.8-1.2-11.8c0-5 0.6-6.1 3.4-6.6 2-0.3 7.9-1.6 12.9-2.7 5.2-1.2 10.1-3.3 10.9-4.5 0.8-1.3 1.1-4.3 0.4-6.6l-0.9-4.4-27.5 0.7v-14.1c20.7-3 27.7-4.9 28.8-6 1.2-1.2 1.9-2.8 1.8-4.6-0.1-1.9-1-3.7-2.3-5.2-1.6-1.5-5-2.3-9.9-2.2-4.1 0.2-13.4 1-20.8 1.8-7.4 0.8-14.3 2.2-15.6 3.3-1.7 1.4-1.8 4.9-1.1 15.2 0.5 7.4 2.4 24.1 4.1 37 2.2 17.4 3.8 24.7 6 27.5 2.9 3.6 4.1 3.9 15.4 3.8 8.1 0 16.1-1.2 23.8-3.5 7.5-2.2 11.9-4.5 13-6.6 1.1-2.3 1-4.2-0.8-7.1-1.2-2.1-3.6-3.9-5.2-3.9z"/>
	</g>
</svg>