<?xml version="1.0" encoding="utf-8"?>
<!-- Generator: Adobe Illustrator 22.0.1, SVG Export Plug-In . SVG Version: 6.00 Build 0)  -->
<svg version="1.1" id="Calque_1" xmlns="http://www.w3.org/2000/svg" xmlns:xlink="http://www.w3.org/1999/xlink" x="0px" y="0px"
	 viewBox="0 0 148 52" style="enable-background:new 0 0 148 52;" xml:space="preserve">
<style type="text/css">
	.st0{fill:#999B9D;}
</style>
<g>
	<path class="st0" d="M69.8,4.9c0-1.6-1.3-2.9-2.9-2.9H13.6c-1.6,0-2.9,1.3-2.9,2.9v36.5h59V4.9z M65.5,36.9H15V6.3h50.5V36.9z"/>
	<path class="st0" d="M48,46.1H31.6c-1.4,0-2.5-1.1-2.5-2.5H2.7C2.7,47.1,5.5,50,9,50h61.5c3.5,0,6.4-2.9,6.4-6.4H50.5
		C50.5,45,49.4,46.1,48,46.1z"/>
	<path class="st0" d="M100.6,19.5H86c-0.8,0-1.5,0.7-1.5,1.5v27.6c0,0.8,0.7,1.5,1.5,1.5h14.6c0.8,0,1.5-0.7,1.5-1.5V20.9
		C102.1,20.1,101.4,19.5,100.6,19.5z M90.9,22.2h4.8c0.2,0,0.3,0.2,0.3,0.3c0,0.2-0.2,0.3-0.3,0.3h-4.8c-0.2,0-0.3-0.2-0.3-0.3
		C90.6,22.3,90.7,22.2,90.9,22.2z M94.6,47.9c-0.1,0.1-0.1,0.2-0.2,0.2c-1.6,1.1-3.4-0.7-2.3-2.3c0.1-0.1,0.1-0.2,0.2-0.2
		C93.9,44.5,95.7,46.2,94.6,47.9z M99.3,43.7H87.4v-18h11.9V43.7z"/>
	<path class="st0" d="M142.4,8.4h-26.2c-1.6,0-2.9,1.3-2.9,2.9v35.8c0,1.6,1.3,2.9,2.9,2.9h26.2c1.6,0,2.9-1.3,2.9-2.9V11.3
		C145.3,9.7,144,8.4,142.4,8.4z M141.1,43.7h-23.4v-31h23.4V43.7z"/>
</g>
</svg>
