<svg version="1.2" xmlns="http://www.w3.org/2000/svg" viewBox="0 0 180 48" width="180" height="48">
	<title>menu-logo (1)-svg</title>
	<style>
		.s0 { fill: #ffffff } 
	</style>
	<g id="Camada 1">
		<path id="&lt;Path&gt;" class="s0" d="m111.5 29.3c-1.5 0-2.8-0.1-3-0.3-0.2-0.1-0.4-2-0.5-6.1-0.1-4.9-0.3-5.9-0.6-6.4-0.3-0.2-0.7-0.4-1.1-0.4-0.3 0-0.7 0.2-0.9 0.4-0.3 0.4-0.4 1.8-0.4 6.7 0.1 3.4 0.2 6.6 0.4 7.1 0.1 0.5 0.6 1 0.9 1.2 0.3 0.2 1.9 0.4 3.5 0.5 1.6 0 3.2 0 3.6-0.1 0.5-0.1 0.9-0.4 1.1-0.8 0.2-0.3 0.2-0.8 0-1.2-0.3-0.6-0.5-0.6-3-0.6z"/>
		<path id="&lt;Path&gt;" class="s0" d="m102 29.9c-0.4-0.3-1.1-0.3-2.5-0.2-1.1 0.2-2.3 0.2-2.8 0.2-0.8-0.1-0.8-0.1-1-1.9q-0.1-1-0.2-1.9c0.1 0 1.2-0.1 2.5-0.2 1.4-0.1 2.7-0.3 3-0.5 0.3-0.1 0.5-0.5 0.5-0.8 0.1-0.4 0-0.7-0.3-1-0.2-0.2-1.5-0.4-3.1-0.4l-2.7-0.1c-0.3-3-0.3-3.7-0.1-3.8 0.2-0.1 1.5-0.2 3-0.1 2 0 2.7 0 3.1-0.4q0.4-0.4 0.5-0.9 0-0.5-0.4-0.9c-0.2-0.2-1.3-0.4-2.4-0.5-1.1-0.1-2.8-0.2-3.7-0.2q-1.1-0.1-2.3 0c-0.3 0.1-0.6 0.5-0.9 1.1-0.3 0.9-0.2 1.8 0.1 5.6 0.3 2.5 0.5 5.1 0.6 5.7 0 0.7 0.2 1.7 0.5 2.1 0.3 0.6 0.8 1 1.9 1.5 1.3 0.6 1.7 0.6 3.7 0.5 1.5-0.2 2.5-0.4 3-0.7 0.4-0.3 0.7-0.6 0.8-0.8q0.1-0.3 0-0.7c-0.1-0.2-0.4-0.5-0.8-0.7z"/>
		<path id="&lt;Compound Path&gt;" fill-rule="evenodd" class="s0" d="m91.6 31.1c-0.1 0.6-0.2 0.8-0.8 0.9-0.4 0-1.1-0.2-1.8-0.7-0.6-0.4-2.4-1.7-4.1-2.9-1.7-1.1-3.2-2.1-3.4-2.2-0.2-0.2-0.3 0.4-0.3 2.6 0.1 2.2 0 3-0.3 3.3-0.3 0.3-0.6 0.5-1 0.5-0.4-0.1-0.8-0.3-1.1-0.6-0.3-0.5-0.4-2.4-0.6-8.1-0.2-5.7-0.2-7.7 0-8.1 0.3-0.6 0.5-0.6 2.7-0.5 1.4 0.1 2.8 0.4 3.6 0.7q1 0.5 1.9 1.3 0.8 1 1.2 2.1 0.5 1.2 0.4 2.5-0.1 1-0.6 2c-0.3 0.4-0.7 0.8-1.3 1-0.4 0.1-0.8 0.4-0.8 0.5 0 0.2 0.2 0.4 0.5 0.4 0.3 0.1 1.3 0.7 2.3 1.4 1 0.8 2.2 1.7 2.7 2.2 0.7 0.6 0.9 1 0.8 1.7zm-6.6-11q-0.4-0.8-1.1-1.3-0.7-0.5-1.6-0.7l-1-0.2-0.1 2.5v2.6c1.5 0 2.4-0.3 2.9-0.5 0.5-0.2 1-0.6 1.1-1 0.1-0.3 0-1-0.2-1.4z"/>
		<path id="&lt;Path&gt;" class="s0" d="m73.2 15.7q-0.5-0.2-1-0.2c-0.3 0-0.8 0.3-1.2 0.7-0.6 0.6-0.6 0.6-0.5 4.6 0.2 2.3 0.2 4.1 0 4.1-0.1 0-0.7-0.6-1.3-1.3-0.6-0.7-1.8-2.3-2.7-3.5-0.8-1.3-1.7-2.6-1.8-3.1-0.2-0.4-0.6-0.9-0.9-1q-0.6-0.2-1.3 0.3l-0.7 0.5c0.4 7 0.6 10.5 0.8 12.4 0.3 2.6 0.5 3.3 0.9 3.6 0.3 0.2 0.7 0.3 0.9 0.2 0.2-0.1 0.6-0.4 0.8-0.8 0.3-0.4 0.3-1.5 0.2-4.6-0.1-2.3-0.1-4.1 0-4.1 0.1 0 0.9 0.9 1.8 2 0.8 1.1 2 2.9 2.7 4 0.7 1.2 1.5 2.2 1.7 2.4 0.4 0.2 0.6 0.2 1.2-0.1 0.4-0.3 0.7-0.8 0.8-1.3 0.1-0.4 0.1-3.9 0-7.7-0.1-5.2-0.2-6.9-0.4-7.1z"/>
		<path id="&lt;Path&gt;" class="s0" d="m26.8 22.7c-0.2-2.7-0.5-5.2-0.6-5.5-0.2-0.3-0.6-0.6-1-0.6-0.3 0-0.7 0.1-0.9 0.4-0.2 0.2-0.3 1.1-0.3 2.8 0 1.3 0 2.6-0.1 2.8-0.2 0.2-0.8 0.4-1.9 0.4-1.5 0-1.6-0.1-1.7-0.7-0.1-0.3-0.3-1.6-0.4-2.9-0.2-2.3-0.2-2.4-1-2.8q-0.6-0.3-1.1-0.7c-0.2-0.2-0.8-0.5-1.4-0.7q-0.9-0.2-1.8-0.2c-0.4 0-1.1 0.1-1.6 0.2-0.6 0-3.2 0.4-6 0.8-3.5 0.4-5 0.8-5.4 1.1-0.3 0.3-0.4 0.6-0.3 1q0.3 0.5 0.8 0.9c0.4 0.2 1.1 0.2 3.3-0.1 1.5-0.2 2.8-0.3 2.9-0.2 0.1 0.1 0.1 2.8 0.2 5.9 0 3.9 0.2 6 0.4 6.5 0.2 0.4 0.5 0.9 0.8 1 0.2 0.2 0.7 0.2 1.1 0.1 0.5-0.1 0.8-0.4 0.9-0.8 0.1-0.3 0-3.3-0.2-6.7-0.2-3.3-0.3-6.2-0.3-6.3 0.1-0.3 0.8-0.5 2.1-0.6q1.5-0.1 3 0h0.9c0.1 10.4 0.3 12.8 0.5 13.5 0.3 0.9 0.5 1.2 1 1.2 0.4 0 0.9 0 1.1-0.1 0.2-0.2 0.3-1.2 0.4-3.4l0.1-3.2c2.7-0.2 3.6-0.2 3.8-0.1 0.1 0.1 0.3 1.1 0.4 2.3 0.2 1.2 0.5 2.7 0.7 3.1 0.3 0.6 0.6 0.9 1 0.9q0.5 0 0.9-0.4c0.4-0.3 0.4-0.8 0.3-2.1-0.1-1-0.3-4-0.6-6.8z"/>
		<path id="&lt;Path&gt;" class="s0" d="m36.7 28.7c-1.3 0.1-2.5 0.2-2.7 0.1-0.1-0.1-0.1-1-0.1-1.9l0.1-1.6c3.1-0.2 4.1-0.5 4.4-0.7 0.3-0.3 0.4-0.7 0.4-1.2 0-0.4-0.2-0.8-0.3-0.9-0.2-0.1-1.4-0.2-2.6-0.2h-2.2l-0.2-2.8c4.2-0.4 5.4-0.7 5.7-1q0.4-0.4 0.5-0.9-0.1-0.5-0.4-0.9c-0.2-0.3-1-0.4-2.3-0.3-1 0-2.7 0.1-3.7 0.2-1.3 0.2-1.9 0.4-2.3 0.9-0.5 0.6-0.5 0.9-0.3 5 0.1 2.5 0.3 5.2 0.4 6.2 0.2 1.4 0.5 2 1 2.5l0.7 0.7c4.6-0.6 6.1-0.9 6.4-1q0.4-0.3 0.7-0.8c0.2-0.4 0.2-0.7-0.2-1.1-0.5-0.6-0.6-0.6-3-0.3z"/>
		<path id="&lt;Path&gt;" class="s0" d="m57.1 15.9c-0.5-0.1-0.9 0-1.1 0.2-0.1 0.2-0.3 2.5-0.3 5.7 0 4.7 0 5.5-0.5 6.2-0.2 0.4-0.6 0.7-0.8 0.7-0.2 0-0.8-0.2-1.1-0.6-0.3-0.3-0.8-1.3-1.1-2.1-0.2-0.9-0.6-3-0.7-4.8-0.2-1.8-0.3-3.6-0.2-3.8 0.1-0.3 0-0.8-0.2-1.2-0.3-0.5-0.8-0.7-1.3-0.7-0.6 0-0.9 0.2-1.3 0.8-0.4 0.7-0.4 1.1-0.1 4.5q0.3 3 0.9 6c0.3 1.3 0.8 2.8 1.1 3.3q0.7 0.9 1.6 1.6c0.5 0.3 1.4 0.6 1.9 0.6q0.8 0 1.6-0.4c0.5-0.2 1.2-0.8 1.6-1.3q0.9-1 1.2-2.3c0.2-0.9 0.3-3.6 0.3-6.2 0-3.3-0.1-5-0.3-5.5-0.2-0.4-0.7-0.7-1.2-0.7z"/>
		<path id="&lt;Compound Path&gt;" fill-rule="evenodd" class="s0" d="m139.6 27.6c0.8 1.8 1.2 3.4 1.2 3.7-0.2 0.4-0.5 0.7-0.8 0.9-0.3 0.2-0.8 0.3-1 0.3-0.2-0.1-0.6-0.6-0.9-1.1q-0.5-1-0.7-2c-0.2-0.6-0.4-1.4-0.5-1.8-0.1-0.8-0.2-0.8-2.1-0.8-1.1 0-2.2 0.1-2.4 0.2-0.2 0.1-0.4 1.1-0.6 2.3-0.2 1.1-0.4 2.2-0.5 2.4q-0.3 0.5-0.7 0.7-0.6 0.1-1.2-0.4c-0.4-0.3-0.6-0.8-0.6-1.5 0-0.6 0.5-4 1-7.7 0.6-3.6 1.1-6.7 1.3-6.9 0.1-0.2 0.6-0.4 1.1-0.4q0.9 0.1 1.6 0.7c0.4 0.3 1.6 2.3 2.6 4.4 1.1 2.1 2.5 5.3 3.2 7zm-4.5-3.7c0.1-0.1-0.2-0.9-0.8-1.9-0.5-1-1-1.9-1.1-1.9-0.1-0.1-0.2 0.1-0.3 0.5q-0.2 1-0.1 2.1v1.5c1.7-0.1 2.3-0.2 2.3-0.3z"/>
		<path id="&lt;Path&gt;" class="s0" d="m149.3 23c-0.7-0.3-1.4-0.6-1.5-0.6-0.2 0-0.8-0.2-1.4-0.5-0.6-0.4-1.2-0.9-1.3-1.2 0-0.4 0-0.9 0.2-1.2 0.2-0.5 0.5-0.7 1.2-0.7q0.9 0.1 1.9 0.4c0.8 0.2 1.1 0.2 1.7-0.1 0.6-0.3 0.7-0.6 0.6-1.2-0.1-0.6-0.4-1.1-0.8-1.4-0.6-0.4-1.3-0.6-2.6-0.7-1.4 0-2.2 0.1-3 0.5q-1 0.5-1.8 1.4-0.8 0.9-1.1 2c-0.2 1-0.2 1.3 0.4 2.4q0.6 1.1 1.6 2c0.6 0.5 1.6 0.9 2.6 1.1 0.9 0.2 1.9 0.5 2.3 0.6 0.4 0.2 0.8 0.6 0.9 0.9q0.3 0.5-0.2 1.2-0.5 0.5-1 1c-0.4 0.2-0.9 0.1-2.3-0.7-1.1-0.5-2.2-0.8-2.5-0.8-0.3 0-0.7 0.4-0.8 0.8-0.2 0.3-0.3 0.8-0.1 1.2 0.1 0.2 0.8 0.7 1.4 1.1q1.2 0.7 2.6 1c1 0.2 1.6 0.2 2.4 0q1.1-0.4 1.9-1.1 0.8-0.7 1.2-1.6 0.4-0.9 0.4-1.9c0-0.7-0.3-1.4-0.8-2.2q-0.8-1.1-2.1-1.7z"/>
		<path id="&lt;Path&gt;" class="s0" d="m126.4 29c-0.4-0.4-0.7-0.4-2.3-0.1-1 0.2-2.1 0.5-2.6 0.6l-0.8 0.1c-0.3-3.1-0.4-4.1-0.4-4.1 0.1 0 1.1-0.2 2.2-0.4 1.2-0.1 2.4-0.3 2.7-0.5 0.3-0.2 0.5-0.5 0.6-0.9q0-0.5-0.4-1c-0.2-0.2-1-0.3-2.8-0.2h-2.5l-0.1-3.8c3.9-0.3 5.4-0.5 5.9-0.7 0.6-0.3 0.9-0.7 0.9-1.1 0-0.4-0.1-0.9-0.3-1-0.2-0.3-1.3-0.4-3.9-0.4-3.1 0-3.7 0.1-4.5 0.6-0.7 0.4-0.9 0.8-1 1.7-0.1 0.6-0.1 3.7 0 6.8 0.2 5.1 0.3 5.7 0.8 6.5q0.6 0.7 1.4 1.2c0.6 0.2 1.1 0.2 3.2-0.2 1.4-0.3 2.9-0.7 3.3-0.9 0.5-0.1 0.9-0.5 1-1 0.1-0.6 0-0.9-0.4-1.2z"/>
		<path id="&lt;Compound Path&gt;" fill-rule="evenodd" class="s0" d="m177.9 23.4c0 1.1-0.2 2.1-0.7 3.1q-0.7 1.4-1.7 2.6-1.1 1-2.4 1.9c-1 0.8-1.7 1-2.5 1-0.6 0-1.3 0-1.5-0.2q-0.6-0.3-0.9-0.9c-0.2-0.5-0.5-2-0.7-3.3-0.3-1.4-0.6-4.3-0.9-6.3-0.2-2-0.4-4-0.4-4.4 0.1-0.6 0.3-1 0.6-1.4 0.5-0.5 0.8-0.6 1.9-0.4 0.7 0.1 2.1 0.6 3.2 1.1q1.8 0.9 3.4 2.1c0.8 0.7 1.7 1.7 2 2.3 0.4 0.7 0.6 1.7 0.6 2.8zm-3.2 2q0.3-0.8 0.3-1.7 0-0.9-0.4-1.8-0.4-0.8-1.1-1.4c-0.5-0.5-1.5-1.1-2.3-1.5-0.7-0.4-1.5-0.7-1.6-0.7-0.1 0-0.1 1.2 0 2.7 0.1 1.5 0.4 3.7 0.6 5 0.1 1.4 0.4 2.5 0.5 2.6 0.1 0.1 0.5 0 0.8-0.1q0.9-0.6 1.6-1.3c0.7-0.6 1.3-1.4 1.6-1.8z"/>
		<path id="&lt;Path&gt;" class="s0" d="m163.8 27.1c-0.3 0-1.4 0.2-2.4 0.5-1 0.3-2.3 0.6-2.8 0.6-0.7 0-0.8-0.1-1-1q-0.2-1.1-0.2-2.1c0-0.9 0.1-1.1 0.6-1.2 0.4 0 1.4-0.2 2.3-0.4 0.9-0.2 1.7-0.6 1.9-0.8 0.1-0.2 0.2-0.8 0-1.2l-0.1-0.7-4.8 0.1v-2.5c3.6-0.5 4.8-0.8 5-1q0.3-0.4 0.3-0.8c0-0.4-0.1-0.7-0.4-1q-0.4-0.4-1.7-0.3c-0.7 0-2.3 0.1-3.6 0.3-1.3 0.1-2.5 0.4-2.8 0.6-0.3 0.2-0.3 0.8-0.2 2.6 0.1 1.3 0.5 4.2 0.8 6.5 0.3 3 0.6 4.3 1 4.8 0.5 0.6 0.7 0.7 2.7 0.7q2.1 0 4.2-0.6 1.9-0.6 2.2-1.2c0.2-0.4 0.2-0.7-0.1-1.2-0.2-0.4-0.6-0.7-0.9-0.7z"/>
	</g>
</svg>
